<?xml version="1.0" encoding="UTF-8" standalone="no"?>
<svg
   xmlns:dc="http://purl.org/dc/elements/1.1/"
   xmlns:cc="http://creativecommons.org/ns#"
   xmlns:rdf="http://www.w3.org/1999/02/22-rdf-syntax-ns#"
   xmlns:svg="http://www.w3.org/2000/svg"
   xmlns="http://www.w3.org/2000/svg"
   viewBox="0 0 1600 533.33331"
   height="533.33331"
   width="1600"
   xml:space="preserve"
   id="svg2"
   version="1.1"><metadata
     id="metadata8"><rdf:RDF><cc:Work
         rdf:about=""><dc:format>image/svg+xml</dc:format><dc:type
           rdf:resource="http://purl.org/dc/dcmitype/StillImage" /></cc:Work></rdf:RDF></metadata><defs
     id="defs6"><linearGradient
       id="linearGradient30"
       spreadMethod="pad"
       gradientTransform="matrix(-1199.999,0,0,-1199.999,1200.0005,199.99843)"
       gradientUnits="userSpaceOnUse"
       y2="0"
       x2="1"
       y1="0"
       x1="0"><stop
         id="stop24"
         offset="0"
         style="stop-opacity:1;stop-color:#066189" /><stop
         id="stop26"
         offset="0.998754"
         style="stop-opacity:1;stop-color:#02304a" /><stop
         id="stop28"
         offset="1"
         style="stop-opacity:1;stop-color:#02304a" /></linearGradient><clipPath
       id="clipPath40"
       clipPathUnits="userSpaceOnUse"><path
         id="path38"
         d="M 0.002,0 H 1199.999 V 399.999 H 0.002 Z" /></clipPath><clipPath
       id="clipPath48"
       clipPathUnits="userSpaceOnUse"><path
         id="path46"
         d="M 588.666,248.561 H 778.841 V 58.3856 H 588.666 Z" /></clipPath><linearGradient
       id="linearGradient60"
       spreadMethod="pad"
       gradientTransform="matrix(-138.60023,138.60023,-138.60023,-138.60023,753.05359,84.17321)"
       gradientUnits="userSpaceOnUse"
       y2="0"
       x2="1"
       y1="0"
       x1="0"><stop
         id="stop54"
         offset="0"
         style="stop-opacity:1;stop-color:#066189" /><stop
         id="stop56"
         offset="0.998754"
         style="stop-opacity:1;stop-color:#02304a" /><stop
         id="stop58"
         offset="1"
         style="stop-opacity:1;stop-color:#02304a" /></linearGradient><clipPath
       id="clipPath82"
       clipPathUnits="userSpaceOnUse"><path
         id="path80"
         d="M 541.966,136.316 H 672.644 V 5.63863 H 541.966 Z" /></clipPath><linearGradient
       id="linearGradient94"
       spreadMethod="pad"
       gradientTransform="matrix(-95.238144,95.238144,-95.238144,-95.238144,654.92432,23.358377)"
       gradientUnits="userSpaceOnUse"
       y2="0"
       x2="1"
       y1="0"
       x1="0"><stop
         id="stop88"
         offset="0"
         style="stop-opacity:1;stop-color:#066189" /><stop
         id="stop90"
         offset="0.998754"
         style="stop-opacity:1;stop-color:#02304a" /><stop
         id="stop92"
         offset="1"
         style="stop-opacity:1;stop-color:#02304a" /></linearGradient><clipPath
       id="clipPath116"
       clipPathUnits="userSpaceOnUse"><path
         id="path114"
         d="M 200.512,169.066 H 509.987 V -140.409 H 200.512 Z" /></clipPath><linearGradient
       id="linearGradient128"
       spreadMethod="pad"
       gradientTransform="matrix(-225.54637,225.54637,-225.54637,-225.54637,468.02261,-98.444572)"
       gradientUnits="userSpaceOnUse"
       y2="0"
       x2="1"
       y1="0"
       x1="0"><stop
         id="stop122"
         offset="0"
         style="stop-opacity:1;stop-color:#066189" /><stop
         id="stop124"
         offset="0.998754"
         style="stop-opacity:1;stop-color:#02304a" /><stop
         id="stop126"
         offset="1"
         style="stop-opacity:1;stop-color:#02304a" /></linearGradient><clipPath
       id="clipPath150"
       clipPathUnits="userSpaceOnUse"><path
         id="path148"
         d="M 355.031,464.959 H 606.33 v -251.3 H 355.031 Z" /></clipPath><linearGradient
       id="linearGradient162"
       spreadMethod="pad"
       gradientTransform="matrix(-183.14764,183.14764,-183.14764,-183.14764,572.25446,247.73518)"
       gradientUnits="userSpaceOnUse"
       y2="0"
       x2="1"
       y1="0"
       x1="0"><stop
         id="stop156"
         offset="0"
         style="stop-opacity:1;stop-color:#066189" /><stop
         id="stop158"
         offset="0.998754"
         style="stop-opacity:1;stop-color:#02304a" /><stop
         id="stop160"
         offset="1"
         style="stop-opacity:1;stop-color:#02304a" /></linearGradient><clipPath
       id="clipPath184"
       clipPathUnits="userSpaceOnUse"><path
         id="path182"
         d="m 257.584,544.123 h 395.05 V 149.209 h -395.05 z" /></clipPath><linearGradient
       id="linearGradient196"
       spreadMethod="pad"
       gradientTransform="matrix(-337.57153,337.57153,-337.57153,-337.57153,635.59106,166.1156)"
       gradientUnits="userSpaceOnUse"
       y2="0"
       x2="1"
       y1="0"
       x1="0"><stop
         id="stop190"
         offset="0"
         style="stop-opacity:1;stop-color:#066189" /><stop
         id="stop192"
         offset="0.998754"
         style="stop-opacity:1;stop-color:#02304a" /><stop
         id="stop194"
         offset="1"
         style="stop-opacity:1;stop-color:#02304a" /></linearGradient><clipPath
       id="clipPath218"
       clipPathUnits="userSpaceOnUse"><path
         id="path216"
         d="M 118.075,400.908 H 513.124 V 5.99487 H 118.075 Z" /></clipPath><linearGradient
       id="linearGradient230"
       spreadMethod="pad"
       gradientTransform="matrix(-337.57153,337.57153,-337.57153,-337.57153,496.08154,22.901516)"
       gradientUnits="userSpaceOnUse"
       y2="0"
       x2="1"
       y1="0"
       x1="0"><stop
         id="stop224"
         offset="0"
         style="stop-opacity:1;stop-color:#066189" /><stop
         id="stop226"
         offset="0.998754"
         style="stop-opacity:1;stop-color:#02304a" /><stop
         id="stop228"
         offset="1"
         style="stop-opacity:1;stop-color:#02304a" /></linearGradient><clipPath
       id="clipPath252"
       clipPathUnits="userSpaceOnUse"><path
         id="path250"
         d="M 65.5501,547.508 H 498.18 V 115.027 H 65.5501 Z" /></clipPath><linearGradient
       id="linearGradient264"
       spreadMethod="pad"
       gradientTransform="matrix(-369.68375,369.68375,-369.68375,-369.68375,479.51581,133.54201)"
       gradientUnits="userSpaceOnUse"
       y2="0"
       x2="1"
       y1="0"
       x1="0"><stop
         id="stop258"
         offset="0"
         style="stop-opacity:1;stop-color:#066189" /><stop
         id="stop260"
         offset="0.998754"
         style="stop-opacity:1;stop-color:#02304a" /><stop
         id="stop262"
         offset="1"
         style="stop-opacity:1;stop-color:#02304a" /></linearGradient><clipPath
       id="clipPath286"
       clipPathUnits="userSpaceOnUse"><path
         id="path284"
         d="m 451.963,276.738 h 395.05 v -394.914 h -395.05 z" /></clipPath><linearGradient
       id="linearGradient298"
       spreadMethod="pad"
       gradientTransform="matrix(337.57153,-337.57153,337.57153,337.57153,469.00586,259.83102)"
       gradientUnits="userSpaceOnUse"
       y2="0"
       x2="1"
       y1="0"
       x1="0"><stop
         id="stop292"
         offset="0"
         style="stop-opacity:1;stop-color:#066189" /><stop
         id="stop294"
         offset="0.998754"
         style="stop-opacity:1;stop-color:#02304a" /><stop
         id="stop296"
         offset="1"
         style="stop-opacity:1;stop-color:#02304a" /></linearGradient><clipPath
       id="clipPath320"
       clipPathUnits="userSpaceOnUse"><path
         id="path318"
         d="M 533.784,78.1318 H 863.398 V -251.369 H 533.784 Z" /></clipPath><linearGradient
       id="linearGradient332"
       spreadMethod="pad"
       gradientTransform="matrix(281.65671,-281.65671,281.65671,281.65671,548.00348,64.025558)"
       gradientUnits="userSpaceOnUse"
       y2="0"
       x2="1"
       y1="0"
       x1="0"><stop
         id="stop326"
         offset="0"
         style="stop-opacity:1;stop-color:#066189" /><stop
         id="stop328"
         offset="0.998754"
         style="stop-opacity:1;stop-color:#02304a" /><stop
         id="stop330"
         offset="1"
         style="stop-opacity:1;stop-color:#02304a" /></linearGradient><clipPath
       id="clipPath354"
       clipPathUnits="userSpaceOnUse"><path
         id="path352"
         d="m 286.851,131.436 h 315.77 v -315.661 h -315.77 z" /></clipPath><linearGradient
       id="linearGradient366"
       spreadMethod="pad"
       gradientTransform="matrix(269.82657,-269.82657,269.82657,269.82657,300.47394,117.92226)"
       gradientUnits="userSpaceOnUse"
       y2="0"
       x2="1"
       y1="0"
       x1="0"><stop
         id="stop360"
         offset="0"
         style="stop-opacity:1;stop-color:#066189" /><stop
         id="stop362"
         offset="0.998754"
         style="stop-opacity:1;stop-color:#02304a" /><stop
         id="stop364"
         offset="1"
         style="stop-opacity:1;stop-color:#02304a" /></linearGradient><clipPath
       id="clipPath388"
       clipPathUnits="userSpaceOnUse"><path
         id="path386"
         d="M 248.908,442.798 H 551.293 V 140.517 H 248.908 Z" /></clipPath><clipPath
       id="clipPath392"
       clipPathUnits="userSpaceOnUse"><path
         id="path390"
         d="m 521.457,232.15 10.081,-10.081 16.486,-16.486 c 2.819,-2.819 3.92,-6.928 2.888,-10.779 l -9.724,-36.291 c -1.032,-3.851 -4.04,-6.859 -7.891,-7.892 l -36.291,-9.723 c -3.851,-1.032 -7.96,0.069 -10.78,2.888 l -16.485,16.486 -0.104,-0.105 -220.729,220.729 61.901,61.902 z" /></clipPath><linearGradient
       id="linearGradient402"
       spreadMethod="pad"
       gradientTransform="matrix(-258.38879,258.38879,-258.38879,-258.38879,538.24768,153.45805)"
       gradientUnits="userSpaceOnUse"
       y2="0"
       x2="1"
       y1="0"
       x1="0"><stop
         id="stop398"
         offset="0"
         style="stop-opacity:1;stop-color:#ffffff" /><stop
         id="stop400"
         offset="1"
         style="stop-opacity:0;stop-color:#ffffff" /></linearGradient><mask
       id="mask404"
       height="1"
       width="1"
       y="0"
       x="0"
       maskUnits="userSpaceOnUse"><g
         id="g414"><g
           id="g412"><g
             id="g410"><g
               id="g408"><path
                 id="path406"
                 style="fill:url(#linearGradient402);stroke:none"
                 d="M -32768,32767 H 32767 V -32768 H -32768 Z" /></g></g></g></g></mask><linearGradient
       id="linearGradient420"
       spreadMethod="pad"
       gradientTransform="matrix(-258.38879,258.38879,-258.38879,-258.38879,538.24768,153.45805)"
       gradientUnits="userSpaceOnUse"
       y2="0"
       x2="1"
       y1="0"
       x1="0"><stop
         id="stop416"
         offset="0"
         style="stop-opacity:1;stop-color:#f1f1fb" /><stop
         id="stop418"
         offset="1"
         style="stop-opacity:1;stop-color:#ffffff" /></linearGradient><clipPath
       id="clipPath446"
       clipPathUnits="userSpaceOnUse"><path
         id="path444"
         d="M 3.75517,589.231 H 542.408 V 50.7635 H 3.75517 Z" /></clipPath><clipPath
       id="clipPath450"
       clipPathUnits="userSpaceOnUse"><path
         id="path448"
         d="m 489.261,213.994 17.958,-17.958 29.366,-29.367 c 5.022,-5.022 6.984,-12.342 5.145,-19.202 L 524.409,82.821 C 522.57,75.96 517.212,70.601 510.351,68.763 L 445.705,51.441 c -6.86,-1.838 -14.18,0.123 -19.203,5.146 L 397.136,85.954 396.951,85.768 3.755,478.963 114.023,589.231 Z" /></clipPath><linearGradient
       id="linearGradient460"
       spreadMethod="pad"
       gradientTransform="matrix(-460.28137,460.28137,-460.28137,-460.28137,519.17053,73.815849)"
       gradientUnits="userSpaceOnUse"
       y2="0"
       x2="1"
       y1="0"
       x1="0"><stop
         id="stop456"
         offset="0"
         style="stop-opacity:1;stop-color:#ffffff" /><stop
         id="stop458"
         offset="1"
         style="stop-opacity:0;stop-color:#ffffff" /></linearGradient><mask
       id="mask462"
       height="1"
       width="1"
       y="0"
       x="0"
       maskUnits="userSpaceOnUse"><g
         id="g472"><g
           id="g470"><g
             id="g468"><g
               id="g466"><path
                 id="path464"
                 style="fill:url(#linearGradient460);stroke:none"
                 d="M -32768,32767 H 32767 V -32768 H -32768 Z" /></g></g></g></g></mask><linearGradient
       id="linearGradient478"
       spreadMethod="pad"
       gradientTransform="matrix(-460.28137,460.28137,-460.28137,-460.28137,519.17053,73.815849)"
       gradientUnits="userSpaceOnUse"
       y2="0"
       x2="1"
       y1="0"
       x1="0"><stop
         id="stop474"
         offset="0"
         style="stop-opacity:1;stop-color:#f1f1fb" /><stop
         id="stop476"
         offset="1"
         style="stop-opacity:1;stop-color:#ffffff" /></linearGradient><clipPath
       id="clipPath504"
       clipPathUnits="userSpaceOnUse"><path
         id="path502"
         d="m 347.95,166.126 h 352.72 v -352.6 H 347.95 Z" /></clipPath><clipPath
       id="clipPath508"
       clipPathUnits="userSpaceOnUse"><path
         id="path506"
         d="m 382.751,59.239 -11.758,11.759 -19.23,19.23 c -3.289,3.289 -4.573,8.082 -3.37,12.575 l 11.343,42.331 c 1.204,4.492 4.713,8.001 9.205,9.205 l 42.331,11.343 c 4.493,1.204 9.287,-0.081 12.575,-3.37 l 19.23,-19.229 0.121,0.121 257.472,-257.472 -72.205,-72.206 z" /></clipPath><linearGradient
       id="linearGradient518"
       spreadMethod="pad"
       gradientTransform="matrix(301.40146,-301.40146,301.40146,301.40146,363.16617,151.03053)"
       gradientUnits="userSpaceOnUse"
       y2="0"
       x2="1"
       y1="0"
       x1="0"><stop
         id="stop514"
         offset="0"
         style="stop-opacity:1;stop-color:#ffffff" /><stop
         id="stop516"
         offset="1"
         style="stop-opacity:0;stop-color:#ffffff" /></linearGradient><mask
       id="mask520"
       height="1"
       width="1"
       y="0"
       x="0"
       maskUnits="userSpaceOnUse"><g
         id="g530"><g
           id="g528"><g
             id="g526"><g
               id="g524"><path
                 id="path522"
                 style="fill:url(#linearGradient518);stroke:none"
                 d="M -32768,32767 H 32767 V -32768 H -32768 Z" /></g></g></g></g></mask><linearGradient
       id="linearGradient536"
       spreadMethod="pad"
       gradientTransform="matrix(301.40146,-301.40146,301.40146,301.40146,363.16617,151.03053)"
       gradientUnits="userSpaceOnUse"
       y2="0"
       x2="1"
       y1="0"
       x1="0"><stop
         id="stop532"
         offset="0"
         style="stop-opacity:1;stop-color:#f1f1fb" /><stop
         id="stop534"
         offset="1"
         style="stop-opacity:1;stop-color:#ffffff" /></linearGradient><clipPath
       id="clipPath562"
       clipPathUnits="userSpaceOnUse"><path
         id="path560"
         d="m 606.531,260.13 h 86.181 v -86.182 h -86.181 z" /></clipPath><clipPath
       id="clipPath566"
       clipPathUnits="userSpaceOnUse"><path
         id="path564"
         d="m 663.631,258.487 27.439,-27.439 c 1.417,-1.417 1.97,-3.482 1.451,-5.417 l -10.043,-37.482 c -0.519,-1.936 -2.03,-3.447 -3.966,-3.966 L 641.03,174.14 c -1.935,-0.519 -4,0.034 -5.417,1.451 l -27.439,27.439 c -1.417,1.417 -1.97,3.482 -1.451,5.417 l 10.043,37.482 c 0.519,1.936 2.03,3.447 3.965,3.966 l 37.483,10.043 c 1.935,0.519 4,-0.034 5.417,-1.451" /></clipPath><linearGradient
       id="linearGradient576"
       spreadMethod="pad"
       gradientTransform="matrix(-62.809032,62.809032,-62.809032,-62.809032,681.02637,185.63451)"
       gradientUnits="userSpaceOnUse"
       y2="0"
       x2="1"
       y1="0"
       x1="0"><stop
         id="stop572"
         offset="0"
         style="stop-opacity:1;stop-color:#ffffff" /><stop
         id="stop574"
         offset="1"
         style="stop-opacity:0;stop-color:#ffffff" /></linearGradient><mask
       id="mask578"
       height="1"
       width="1"
       y="0"
       x="0"
       maskUnits="userSpaceOnUse"><g
         id="g588"><g
           id="g586"><g
             id="g584"><g
               id="g582"><path
                 id="path580"
                 style="fill:url(#linearGradient576);stroke:none"
                 d="M -32768,32767 H 32767 V -32768 H -32768 Z" /></g></g></g></g></mask><linearGradient
       id="linearGradient594"
       spreadMethod="pad"
       gradientTransform="matrix(-62.809032,62.809032,-62.809032,-62.809032,681.02637,185.63451)"
       gradientUnits="userSpaceOnUse"
       y2="0"
       x2="1"
       y1="0"
       x1="0"><stop
         id="stop590"
         offset="0"
         style="stop-opacity:1;stop-color:#f1f1fb" /><stop
         id="stop592"
         offset="1"
         style="stop-opacity:1;stop-color:#ffffff" /></linearGradient><clipPath
       id="clipPath620"
       clipPathUnits="userSpaceOnUse"><path
         id="path618"
         d="M 556.893,147.988 H 694.308 V 10.5733 H 556.893 Z" /></clipPath><clipPath
       id="clipPath636"
       clipPathUnits="userSpaceOnUse"><path
         id="path634"
         d="M 481.085,126.577 H 592.284 V 15.3777 H 481.085 Z" /></clipPath><clipPath
       id="clipPath640"
       clipPathUnits="userSpaceOnUse"><path
         id="path638"
         d="m 554.76,124.457 35.404,-35.404 c 1.829,-1.828 2.542,-4.493 1.873,-6.99 L 579.078,33.7 c -0.668,-2.497 -2.619,-4.448 -5.117,-5.117 L 525.599,15.624 c -2.498,-0.669 -5.163,0.045 -6.991,1.873 l -35.404,35.405 c -1.828,1.828 -2.542,4.492 -1.873,6.99 l 12.959,48.363 c 0.669,2.497 2.62,4.448 5.117,5.116 l 48.363,12.959 c 2.497,0.669 5.162,-0.044 6.99,-1.873" /></clipPath><linearGradient
       id="linearGradient650"
       spreadMethod="pad"
       gradientTransform="matrix(-81.04248,81.04248,-81.04248,-81.04248,577.20563,30.456207)"
       gradientUnits="userSpaceOnUse"
       y2="0"
       x2="1"
       y1="0"
       x1="0"><stop
         id="stop646"
         offset="0"
         style="stop-opacity:1;stop-color:#ffffff" /><stop
         id="stop648"
         offset="1"
         style="stop-opacity:0;stop-color:#ffffff" /></linearGradient><mask
       id="mask652"
       height="1"
       width="1"
       y="0"
       x="0"
       maskUnits="userSpaceOnUse"><g
         id="g662"><g
           id="g660"><g
             id="g658"><g
               id="g656"><path
                 id="path654"
                 style="fill:url(#linearGradient650);stroke:none"
                 d="M -32768,32767 H 32767 V -32768 H -32768 Z" /></g></g></g></g></mask><linearGradient
       id="linearGradient668"
       spreadMethod="pad"
       gradientTransform="matrix(-81.04248,81.04248,-81.04248,-81.04248,577.20563,30.456207)"
       gradientUnits="userSpaceOnUse"
       y2="0"
       x2="1"
       y1="0"
       x1="0"><stop
         id="stop664"
         offset="0"
         style="stop-opacity:1;stop-color:#f1f1fb" /><stop
         id="stop666"
         offset="1"
         style="stop-opacity:1;stop-color:#ffffff" /></linearGradient><clipPath
       id="clipPath694"
       clipPathUnits="userSpaceOnUse"><path
         id="path692"
         d="M 521.178,180.482 H 683.007 V 18.6527 H 521.178 Z" /></clipPath><clipPath
       id="clipPath698"
       clipPathUnits="userSpaceOnUse"><path
         id="path696"
         d="m 628.398,177.397 51.524,-51.524 c 2.66,-2.66 3.699,-6.538 2.725,-10.172 L 663.788,45.318 c -0.973,-3.634 -3.812,-6.473 -7.446,-7.447 L 585.959,19.012 c -3.634,-0.974 -7.512,0.065 -10.173,2.726 l -51.523,51.523 c -2.661,2.661 -3.7,6.539 -2.727,10.173 l 18.86,70.383 c 0.974,3.634 3.812,6.473 7.447,7.447 l 70.382,18.858 c 3.635,0.975 7.513,-0.064 10.173,-2.725" /></clipPath><linearGradient
       id="linearGradient708"
       spreadMethod="pad"
       gradientTransform="matrix(-117.94128,117.94128,-117.94128,-117.94128,661.06274,40.596561)"
       gradientUnits="userSpaceOnUse"
       y2="0"
       x2="1"
       y1="0"
       x1="0"><stop
         id="stop704"
         offset="0"
         style="stop-opacity:1;stop-color:#ffffff" /><stop
         id="stop706"
         offset="1"
         style="stop-opacity:0;stop-color:#ffffff" /></linearGradient><mask
       id="mask710"
       height="1"
       width="1"
       y="0"
       x="0"
       maskUnits="userSpaceOnUse"><g
         id="g720"><g
           id="g718"><g
             id="g716"><g
               id="g714"><path
                 id="path712"
                 style="fill:url(#linearGradient708);stroke:none"
                 d="M -32768,32767 H 32767 V -32768 H -32768 Z" /></g></g></g></g></mask><linearGradient
       id="linearGradient726"
       spreadMethod="pad"
       gradientTransform="matrix(-117.94128,117.94128,-117.94128,-117.94128,661.06274,40.596561)"
       gradientUnits="userSpaceOnUse"
       y2="0"
       x2="1"
       y1="0"
       x1="0"><stop
         id="stop722"
         offset="0"
         style="stop-opacity:1;stop-color:#f1f1fb" /><stop
         id="stop724"
         offset="1"
         style="stop-opacity:1;stop-color:#ffffff" /></linearGradient><clipPath
       id="clipPath752"
       clipPathUnits="userSpaceOnUse"><path
         id="path750"
         d="M 370.176,379.938 H 546.737 V 203.377 H 370.176 Z" /></clipPath><clipPath
       id="clipPath756"
       clipPathUnits="userSpaceOnUse"><path
         id="path754"
         d="m 487.157,376.572 56.214,-56.214 c 2.903,-2.903 4.037,-7.133 2.974,-11.099 L 525.769,232.47 c -1.062,-3.966 -4.159,-7.063 -8.125,-8.125 l -76.789,-20.576 c -3.965,-1.063 -8.196,0.071 -11.099,2.974 l -56.214,56.214 c -2.902,2.902 -4.036,7.133 -2.974,11.099 l 20.576,76.789 c 1.062,3.965 4.16,7.063 8.125,8.125 l 76.79,20.576 c 3.965,1.062 8.195,-0.071 11.098,-2.974" /></clipPath><linearGradient
       id="linearGradient766"
       spreadMethod="pad"
       gradientTransform="matrix(-128.6776,128.6776,-128.6776,-128.6776,522.79547,227.31851)"
       gradientUnits="userSpaceOnUse"
       y2="0"
       x2="1"
       y1="0"
       x1="0"><stop
         id="stop762"
         offset="0"
         style="stop-opacity:1;stop-color:#ffffff" /><stop
         id="stop764"
         offset="1"
         style="stop-opacity:0;stop-color:#ffffff" /></linearGradient><mask
       id="mask768"
       height="1"
       width="1"
       y="0"
       x="0"
       maskUnits="userSpaceOnUse"><g
         id="g778"><g
           id="g776"><g
             id="g774"><g
               id="g772"><path
                 id="path770"
                 style="fill:url(#linearGradient766);stroke:none"
                 d="M -32768,32767 H 32767 V -32768 H -32768 Z" /></g></g></g></g></mask><linearGradient
       id="linearGradient784"
       spreadMethod="pad"
       gradientTransform="matrix(-128.6776,128.6776,-128.6776,-128.6776,522.79547,227.31851)"
       gradientUnits="userSpaceOnUse"
       y2="0"
       x2="1"
       y1="0"
       x1="0"><stop
         id="stop780"
         offset="0"
         style="stop-opacity:1;stop-color:#f1f1fb" /><stop
         id="stop782"
         offset="1"
         style="stop-opacity:1;stop-color:#ffffff" /></linearGradient><clipPath
       id="clipPath810"
       clipPathUnits="userSpaceOnUse"><path
         id="path808"
         d="M 153.391,312.782 H 410.339 V 55.8333 H 153.391 Z" /></clipPath><clipPath
       id="clipPath814"
       clipPathUnits="userSpaceOnUse"><path
         id="path812"
         d="m 323.633,307.884 81.808,-81.808 c 4.224,-4.225 5.874,-10.382 4.328,-16.152 L 379.825,98.171 c -1.546,-5.77 -6.053,-10.278 -11.824,-11.823 L 256.249,56.403 c -5.771,-1.546 -11.928,0.104 -16.152,4.328 l -81.809,81.808 c -4.224,4.225 -5.874,10.382 -4.327,16.153 l 29.944,111.752 c 1.546,5.77 6.053,10.278 11.824,11.824 l 111.752,29.944 c 5.77,1.546 11.928,-0.104 16.152,-4.328" /></clipPath><linearGradient
       id="linearGradient824"
       spreadMethod="pad"
       gradientTransform="matrix(-187.26476,187.26476,-187.26476,-187.26476,375.49728,90.675262)"
       gradientUnits="userSpaceOnUse"
       y2="0"
       x2="1"
       y1="0"
       x1="0"><stop
         id="stop820"
         offset="0"
         style="stop-opacity:1;stop-color:#ffffff" /><stop
         id="stop822"
         offset="1"
         style="stop-opacity:0;stop-color:#ffffff" /></linearGradient><mask
       id="mask826"
       height="1"
       width="1"
       y="0"
       x="0"
       maskUnits="userSpaceOnUse"><g
         id="g836"><g
           id="g834"><g
             id="g832"><g
               id="g830"><path
                 id="path828"
                 style="fill:url(#linearGradient824);stroke:none"
                 d="M -32768,32767 H 32767 V -32768 H -32768 Z" /></g></g></g></g></mask><linearGradient
       id="linearGradient842"
       spreadMethod="pad"
       gradientTransform="matrix(-187.26476,187.26476,-187.26476,-187.26476,375.49728,90.675262)"
       gradientUnits="userSpaceOnUse"
       y2="0"
       x2="1"
       y1="0"
       x1="0"><stop
         id="stop838"
         offset="0"
         style="stop-opacity:1;stop-color:#f1f1fb" /><stop
         id="stop840"
         offset="1"
         style="stop-opacity:1;stop-color:#ffffff" /></linearGradient><clipPath
       id="clipPath868"
       clipPathUnits="userSpaceOnUse"><path
         id="path866"
         d="m 362.172,460.375 h 173.54 v -173.54 h -173.54 z" /></clipPath><clipPath
       id="clipPath872"
       clipPathUnits="userSpaceOnUse"><path
         id="path870"
         d="m 477.151,457.067 55.253,-55.252 c 2.853,-2.853 3.967,-7.012 2.923,-10.909 L 515.103,315.43 c -1.045,-3.897 -4.088,-6.942 -7.986,-7.986 L 431.641,287.22 c -3.897,-1.044 -8.056,0.07 -10.909,2.923 l -55.252,55.252 c -2.853,2.853 -3.967,7.012 -2.923,10.91 l 20.224,75.476 c 1.044,3.897 4.088,6.941 7.986,7.986 l 75.476,20.223 c 3.897,1.045 8.055,-0.07 10.908,-2.923" /></clipPath><linearGradient
       id="linearGradient882"
       spreadMethod="pad"
       gradientTransform="matrix(-126.47632,126.47632,-126.47632,-126.47632,512.17999,310.367)"
       gradientUnits="userSpaceOnUse"
       y2="0"
       x2="1"
       y1="0"
       x1="0"><stop
         id="stop878"
         offset="0"
         style="stop-opacity:1;stop-color:#ffffff" /><stop
         id="stop880"
         offset="1"
         style="stop-opacity:0;stop-color:#ffffff" /></linearGradient><mask
       id="mask884"
       height="1"
       width="1"
       y="0"
       x="0"
       maskUnits="userSpaceOnUse"><g
         id="g894"><g
           id="g892"><g
             id="g890"><g
               id="g888"><path
                 id="path886"
                 style="fill:url(#linearGradient882);stroke:none"
                 d="M -32768,32767 H 32767 V -32768 H -32768 Z" /></g></g></g></g></mask><linearGradient
       id="linearGradient900"
       spreadMethod="pad"
       gradientTransform="matrix(-126.47632,126.47632,-126.47632,-126.47632,512.17999,310.367)"
       gradientUnits="userSpaceOnUse"
       y2="0"
       x2="1"
       y1="0"
       x1="0"><stop
         id="stop896"
         offset="0"
         style="stop-opacity:1;stop-color:#f1f1fb" /><stop
         id="stop898"
         offset="1"
         style="stop-opacity:1;stop-color:#ffffff" /></linearGradient><clipPath
       id="clipPath926"
       clipPathUnits="userSpaceOnUse"><path
         id="path924"
         d="M 273.884,479.265 H 609.445 V 143.819 H 273.884 Z" /></clipPath><clipPath
       id="clipPath942"
       clipPathUnits="userSpaceOnUse"><path
         id="path940"
         d="M -51.8996,636.118 H 597.54 V -13.0988 H -51.8996 Z" /></clipPath><clipPath
       id="clipPath958"
       clipPathUnits="userSpaceOnUse"><path
         id="path956"
         d="M 297.995,220.408 H 647.489 V -128.966 H 297.995 Z" /></clipPath></defs><g
     transform="matrix(1.3333333,0,0,-1.3333333,0,533.33333)"
     id="g10"><g
       id="g12"><g
         id="g14"><g
           id="g20"><g
             id="g22"><path
               id="path32"
               style="fill:url(#linearGradient30);stroke:none"
               d="M 0.002,0 H 1199.999 V 399.999 H 0.002 Z" /></g></g></g></g><g
       id="g34"><g
         clip-path="url(#clipPath40)"
         id="g36"><g
           id="g42"><g
             id="g44" /><g
             id="g74"><g
               style="opacity:0.5"
               id="g72"
               clip-path="url(#clipPath48)"><g
                 id="g70"><g
                   id="g68"><g
                     id="g66"><g
                       id="g64"><path
                         id="path62"
                         style="fill:url(#linearGradient60);stroke:none"
                         d="m 714.667,244.936 60.549,-60.549 c 3.127,-3.126 4.347,-7.683 3.203,-11.954 L 756.257,89.722 c -1.145,-4.271 -4.481,-7.608 -8.752,-8.752 L 664.794,58.808 c -4.271,-1.145 -8.828,0.076 -11.954,3.203 l -60.549,60.548 c -3.127,3.127 -4.348,7.684 -3.203,11.955 l 22.162,82.711 c 1.144,4.271 4.48,7.607 8.751,8.751 l 82.712,22.163 c 4.271,1.145 8.827,-0.077 11.954,-3.203" /></g></g></g></g></g></g></g><g
           id="g76"><g
             id="g78" /><g
             id="g108"><g
               style="opacity:0.5"
               id="g106"
               clip-path="url(#clipPath82)"><g
                 id="g104"><g
                   id="g102"><g
                     id="g100"><g
                       id="g98"><path
                         id="path96"
                         style="fill:url(#linearGradient94);stroke:none"
                         d="M 628.547,133.825 670.153,92.22 c 2.148,-2.149 2.988,-5.28 2.201,-8.215 L 657.125,27.171 c -0.786,-2.935 -3.078,-5.227 -6.013,-6.014 L 594.278,5.929 c -2.935,-0.787 -6.067,0.052 -8.215,2.201 l -41.606,41.605 c -2.148,2.149 -2.987,5.28 -2.201,8.215 l 15.229,56.834 c 0.786,2.935 3.079,5.227 6.013,6.014 l 56.835,15.228 c 2.934,0.787 6.066,-0.052 8.214,-2.201" /></g></g></g></g></g></g></g><g
           id="g110"><g
             id="g112" /><g
             id="g142"><g
               style="opacity:0.5"
               id="g140"
               clip-path="url(#clipPath116)"><g
                 id="g138"><g
                   id="g136"><g
                     id="g134"><g
                       id="g132"><path
                         id="path130"
                         style="fill:url(#linearGradient128);stroke:none"
                         d="m 405.556,163.167 98.532,-98.532 c 5.088,-5.088 7.075,-12.504 5.213,-19.454 L 473.235,-89.416 c -1.862,-6.95 -7.291,-12.379 -14.241,-14.241 l -134.597,-36.065 c -6.95,-1.863 -14.366,0.125 -19.454,5.213 l -98.532,98.531 c -5.088,5.088 -7.075,12.504 -5.212,19.454 l 36.065,134.597 c 1.862,6.95 7.291,12.379 14.241,14.241 l 134.597,36.066 c 6.95,1.862 14.366,-0.125 19.454,-5.213" /></g></g></g></g></g></g></g><g
           id="g144"><g
             id="g146" /><g
             id="g176"><g
               style="opacity:0.5"
               id="g174"
               clip-path="url(#clipPath150)"><g
                 id="g172"><g
                   id="g170"><g
                     id="g168"><g
                       id="g166"><path
                         id="path164"
                         style="fill:url(#linearGradient162);stroke:none"
                         d="m 521.53,460.168 80.01,-80.009 c 4.131,-4.132 5.745,-10.154 4.233,-15.797 L 576.487,255.066 c -1.512,-5.643 -5.92,-10.051 -11.564,-11.564 L 455.628,214.217 c -5.644,-1.513 -11.666,0.101 -15.797,4.233 l -80.01,80.009 c -4.131,4.132 -5.745,10.154 -4.233,15.797 l 29.286,109.296 c 1.512,5.643 5.92,10.051 11.564,11.564 l 109.295,29.285 c 5.644,1.512 11.666,-0.101 15.797,-4.233" /></g></g></g></g></g></g></g><g
           id="g178"><g
             id="g180" /><g
             id="g210"><g
               style="opacity:0.5"
               id="g208"
               clip-path="url(#clipPath184)"><g
                 id="g206"><g
                   id="g204"><g
                     id="g202"><g
                       id="g200"><path
                         id="path198"
                         style="fill:url(#linearGradient196);stroke:none"
                         d="m 613.655,268.922 13.171,-13.17 21.537,-21.537 c 3.683,-3.684 5.122,-9.052 3.774,-14.084 L 639.433,172.72 c -1.349,-5.032 -5.278,-8.962 -10.31,-10.31 l -47.412,-12.704 c -5.031,-1.348 -10.4,0.09 -14.083,3.774 l -21.537,21.537 -0.137,-0.136 -288.37,288.371 80.871,80.87 z" /></g></g></g></g></g></g></g><g
           id="g212"><g
             id="g214" /><g
             id="g244"><g
               style="opacity:0.5"
               id="g242"
               clip-path="url(#clipPath218)"><g
                 id="g240"><g
                   id="g238"><g
                     id="g236"><g
                       id="g234"><path
                         id="path232"
                         style="fill:url(#linearGradient230);stroke:none"
                         d="m 474.146,125.708 13.17,-13.17 L 508.853,91 c 3.683,-3.683 5.122,-9.051 3.774,-14.083 L 499.923,29.506 c -1.348,-5.032 -5.278,-8.962 -10.31,-10.31 L 442.202,6.492 c -5.032,-1.348 -10.4,0.09 -14.083,3.774 l -21.538,21.537 -0.136,-0.136 -288.37,288.371 80.87,80.871 z" /></g></g></g></g></g></g></g><g
           id="g246"><g
             id="g248" /><g
             id="g278"><g
               style="opacity:0.5"
               id="g276"
               clip-path="url(#clipPath252)"><g
                 id="g274"><g
                   id="g272"><g
                     id="g270"><g
                       id="g268"><path
                         id="path266"
                         style="fill:url(#linearGradient264);stroke:none"
                         d="m 455.494,246.128 14.422,-14.423 23.586,-23.586 c 4.035,-4.034 5.61,-9.913 4.133,-15.423 l -13.912,-51.922 c -1.477,-5.51 -5.781,-9.814 -11.29,-11.29 l -51.922,-13.912 c -5.511,-1.477 -11.39,0.098 -15.423,4.132 l -23.587,23.586 -0.149,-0.148 -315.802,315.802 88.564,88.564 z" /></g></g></g></g></g></g></g><g
           id="g280"><g
             id="g282" /><g
             id="g312"><g
               style="opacity:0.5"
               id="g310"
               clip-path="url(#clipPath286)"><g
                 id="g308"><g
                   id="g306"><g
                     id="g304"><g
                       id="g302"><path
                         id="path300"
                         style="fill:url(#linearGradient298);stroke:none"
                         d="m 490.942,157.024 -13.171,13.171 -21.537,21.537 c -3.683,3.683 -5.122,9.052 -3.774,14.083 l 12.704,47.412 c 1.349,5.032 5.278,8.961 10.31,10.31 l 47.411,12.704 c 5.032,1.348 10.401,-0.091 14.084,-3.774 l 21.537,-21.537 0.136,0.135 288.371,-288.37 -80.871,-80.871 z" /></g></g></g></g></g></g></g><g
           id="g314"><g
             id="g316" /><g
             id="g346"><g
               style="opacity:0.5"
               id="g344"
               clip-path="url(#clipPath320)"><g
                 id="g342"><g
                   id="g340"><g
                     id="g338"><g
                       id="g336"><path
                         id="path334"
                         style="fill:url(#linearGradient332);stroke:none"
                         d="m 566.306,-21.753 -10.989,10.989 -17.97,17.97 c -3.073,3.074 -4.273,7.553 -3.148,11.751 l 10.599,39.558 c 1.125,4.198 4.404,7.478 8.602,8.603 l 39.558,10.599 c 4.199,1.125 8.678,-0.075 11.751,-3.149 l 17.97,-17.969 0.114,0.113 240.605,-240.605 -67.476,-67.476 z" /></g></g></g></g></g></g></g><g
           id="g348"><g
             id="g350" /><g
             id="g380"><g
               style="opacity:0.5"
               id="g378"
               clip-path="url(#clipPath354)"><g
                 id="g376"><g
                   id="g374"><g
                     id="g372"><g
                       id="g370"><path
                         id="path368"
                         style="fill:url(#linearGradient366);stroke:none"
                         d="M 318.008,35.747 307.48,46.274 290.265,63.49 c -2.944,2.944 -4.094,7.235 -3.016,11.256 l 10.154,37.897 c 1.078,4.022 4.219,7.164 8.241,8.241 l 37.897,10.154 c 4.022,1.078 8.313,-0.071 11.257,-3.016 l 17.215,-17.215 0.109,0.109 230.499,-230.5 -64.641,-64.641 z" /></g></g></g></g></g></g></g><g
           id="g382"><g
             id="g384" /><g
             id="g438"><g
               style="opacity:0.5"
               id="g436"
               clip-path="url(#clipPath388)"><g
                 id="g434"><g
                   id="g432"
                   clip-path="url(#clipPath392)"><g
                     id="g430"><g
                       id="g422" /><g
                       id="g428"
                       mask="url(#mask404)"><g
                         id="g426"><path
                           id="path424"
                           style="fill:url(#linearGradient420);stroke:none"
                           d="m 521.457,232.15 10.081,-10.081 16.486,-16.486 c 2.819,-2.819 3.92,-6.928 2.888,-10.779 l -9.724,-36.291 c -1.032,-3.851 -4.04,-6.859 -7.891,-7.892 l -36.291,-9.723 c -3.851,-1.032 -7.96,0.069 -10.78,2.888 l -16.485,16.486 -0.104,-0.105 -220.729,220.729 61.901,61.902 z" /></g></g></g></g></g></g></g></g><g
           id="g440"><g
             id="g442" /><g
             id="g496"><g
               style="opacity:0.5"
               id="g494"
               clip-path="url(#clipPath446)"><g
                 id="g492"><g
                   id="g490"
                   clip-path="url(#clipPath450)"><g
                     id="g488"><g
                       id="g480" /><g
                       id="g486"
                       mask="url(#mask462)"><g
                         id="g484"><path
                           id="path482"
                           style="fill:url(#linearGradient478);stroke:none"
                           d="m 489.261,213.994 17.958,-17.958 29.366,-29.367 c 5.022,-5.022 6.984,-12.342 5.145,-19.202 L 524.409,82.821 C 522.57,75.96 517.212,70.601 510.351,68.763 L 445.705,51.441 c -6.86,-1.838 -14.18,0.123 -19.203,5.146 L 397.136,85.954 396.951,85.768 3.755,478.963 114.023,589.231 Z" /></g></g></g></g></g></g></g></g><g
           id="g498"><g
             id="g500" /><g
             id="g554"><g
               style="opacity:0.5"
               id="g552"
               clip-path="url(#clipPath504)"><g
                 id="g550"><g
                   id="g548"
                   clip-path="url(#clipPath508)"><g
                     id="g546"><g
                       id="g538" /><g
                       id="g544"
                       mask="url(#mask520)"><g
                         id="g542"><path
                           id="path540"
                           style="fill:url(#linearGradient536);stroke:none"
                           d="m 382.751,59.239 -11.758,11.759 -19.23,19.23 c -3.289,3.289 -4.573,8.082 -3.37,12.575 l 11.343,42.331 c 1.204,4.492 4.713,8.001 9.205,9.205 l 42.331,11.343 c 4.493,1.204 9.287,-0.081 12.575,-3.37 l 19.23,-19.229 0.121,0.121 257.472,-257.472 -72.205,-72.206 z" /></g></g></g></g></g></g></g></g><g
           id="g556"><g
             id="g558" /><g
             id="g612"><g
               style="opacity:0.5"
               id="g610"
               clip-path="url(#clipPath562)"><g
                 id="g608"><g
                   id="g606"
                   clip-path="url(#clipPath566)"><g
                     id="g604"><g
                       id="g596" /><g
                       id="g602"
                       mask="url(#mask578)"><g
                         id="g600"><path
                           id="path598"
                           style="fill:url(#linearGradient594);stroke:none"
                           d="m 663.631,258.487 27.439,-27.439 c 1.417,-1.417 1.97,-3.482 1.451,-5.417 l -10.043,-37.482 c -0.519,-1.936 -2.03,-3.447 -3.966,-3.966 L 641.03,174.14 c -1.935,-0.519 -4,0.034 -5.417,1.451 l -27.439,27.439 c -1.417,1.417 -1.97,3.482 -1.451,5.417 l 10.043,37.482 c 0.519,1.936 2.03,3.447 3.965,3.966 l 37.483,10.043 c 1.935,0.519 4,-0.034 5.417,-1.451" /></g></g></g></g></g></g></g></g><g
           id="g614"><g
             id="g616" /><g
             id="g628"><g
               style="opacity:0.5"
               id="g626"
               clip-path="url(#clipPath620)"><g
                 id="g624"
                 transform="translate(647.7753,144.8881)"><path
                   id="path622"
                   style="fill:none;stroke:#ffffff;stroke-width:1;stroke-linecap:butt;stroke-linejoin:miter;stroke-miterlimit:10;stroke-dasharray:none;stroke-opacity:1"
                   d="m 0,0 43.432,-43.433 c 2.243,-2.242 3.119,-5.511 2.298,-8.574 l -15.897,-59.33 c -0.821,-3.064 -3.214,-5.457 -6.278,-6.278 l -59.329,-15.897 c -3.064,-0.821 -6.333,0.055 -8.576,2.298 l -43.432,43.432 c -2.243,2.243 -3.119,5.512 -2.298,8.575 l 15.897,59.33 c 0.821,3.064 3.214,5.457 6.278,6.277 L -8.575,2.298 C -5.512,3.119 -2.243,2.243 0,0 Z" /></g></g></g></g><g
           id="g630"><g
             id="g632" /><g
             id="g686"><g
               style="opacity:0.5"
               id="g684"
               clip-path="url(#clipPath636)"><g
                 id="g682"><g
                   id="g680"
                   clip-path="url(#clipPath640)"><g
                     id="g678"><g
                       id="g670" /><g
                       id="g676"
                       mask="url(#mask652)"><g
                         id="g674"><path
                           id="path672"
                           style="fill:url(#linearGradient668);stroke:none"
                           d="m 554.76,124.457 35.404,-35.404 c 1.829,-1.828 2.542,-4.493 1.873,-6.99 L 579.078,33.7 c -0.668,-2.497 -2.619,-4.448 -5.117,-5.117 L 525.599,15.624 c -2.498,-0.669 -5.163,0.045 -6.991,1.873 l -35.404,35.405 c -1.828,1.828 -2.542,4.492 -1.873,6.99 l 12.959,48.363 c 0.669,2.497 2.62,4.448 5.117,5.116 l 48.363,12.959 c 2.497,0.669 5.162,-0.044 6.99,-1.873" /></g></g></g></g></g></g></g></g><g
           id="g688"><g
             id="g690" /><g
             id="g744"><g
               style="opacity:0.5"
               id="g742"
               clip-path="url(#clipPath694)"><g
                 id="g740"><g
                   id="g738"
                   clip-path="url(#clipPath698)"><g
                     id="g736"><g
                       id="g728" /><g
                       id="g734"
                       mask="url(#mask710)"><g
                         id="g732"><path
                           id="path730"
                           style="fill:url(#linearGradient726);stroke:none"
                           d="m 628.398,177.397 51.524,-51.524 c 2.66,-2.66 3.699,-6.538 2.725,-10.172 L 663.788,45.318 c -0.973,-3.634 -3.812,-6.473 -7.446,-7.447 L 585.959,19.012 c -3.634,-0.974 -7.512,0.065 -10.173,2.726 l -51.523,51.523 c -2.661,2.661 -3.7,6.539 -2.727,10.173 l 18.86,70.383 c 0.974,3.634 3.812,6.473 7.447,7.447 l 70.382,18.858 c 3.635,0.975 7.513,-0.064 10.173,-2.725" /></g></g></g></g></g></g></g></g><g
           id="g746"><g
             id="g748" /><g
             id="g802"><g
               style="opacity:0.5"
               id="g800"
               clip-path="url(#clipPath752)"><g
                 id="g798"><g
                   id="g796"
                   clip-path="url(#clipPath756)"><g
                     id="g794"><g
                       id="g786" /><g
                       id="g792"
                       mask="url(#mask768)"><g
                         id="g790"><path
                           id="path788"
                           style="fill:url(#linearGradient784);stroke:none"
                           d="m 487.157,376.572 56.214,-56.214 c 2.903,-2.903 4.037,-7.133 2.974,-11.099 L 525.769,232.47 c -1.062,-3.966 -4.159,-7.063 -8.125,-8.125 l -76.789,-20.576 c -3.965,-1.063 -8.196,0.071 -11.099,2.974 l -56.214,56.214 c -2.902,2.902 -4.036,7.133 -2.974,11.099 l 20.576,76.789 c 1.062,3.965 4.16,7.063 8.125,8.125 l 76.79,20.576 c 3.965,1.062 8.195,-0.071 11.098,-2.974" /></g></g></g></g></g></g></g></g><g
           id="g804"><g
             id="g806" /><g
             id="g860"><g
               style="opacity:0.5"
               id="g858"
               clip-path="url(#clipPath810)"><g
                 id="g856"><g
                   id="g854"
                   clip-path="url(#clipPath814)"><g
                     id="g852"><g
                       id="g844" /><g
                       id="g850"
                       mask="url(#mask826)"><g
                         id="g848"><path
                           id="path846"
                           style="fill:url(#linearGradient842);stroke:none"
                           d="m 323.633,307.884 81.808,-81.808 c 4.224,-4.225 5.874,-10.382 4.328,-16.152 L 379.825,98.171 c -1.546,-5.77 -6.053,-10.278 -11.824,-11.823 L 256.249,56.403 c -5.771,-1.546 -11.928,0.104 -16.152,4.328 l -81.809,81.808 c -4.224,4.225 -5.874,10.382 -4.327,16.153 l 29.944,111.752 c 1.546,5.77 6.053,10.278 11.824,11.824 l 111.752,29.944 c 5.77,1.546 11.928,-0.104 16.152,-4.328" /></g></g></g></g></g></g></g></g><g
           id="g862"><g
             id="g864" /><g
             id="g918"><g
               style="opacity:0.5"
               id="g916"
               clip-path="url(#clipPath868)"><g
                 id="g914"><g
                   id="g912"
                   clip-path="url(#clipPath872)"><g
                     id="g910"><g
                       id="g902" /><g
                       id="g908"
                       mask="url(#mask884)"><g
                         id="g906"><path
                           id="path904"
                           style="fill:url(#linearGradient900);stroke:none"
                           d="m 477.151,457.067 55.253,-55.252 c 2.853,-2.853 3.967,-7.012 2.923,-10.909 L 515.103,315.43 c -1.045,-3.897 -4.088,-6.942 -7.986,-7.986 L 431.641,287.22 c -3.897,-1.044 -8.056,0.07 -10.909,2.923 l -55.252,55.252 c -2.853,2.853 -3.967,7.012 -2.923,10.91 l 20.224,75.476 c 1.044,3.897 4.088,6.941 7.986,7.986 l 75.476,20.223 c 3.897,1.045 8.055,-0.07 10.908,-2.923" /></g></g></g></g></g></g></g></g><g
           id="g920"><g
             id="g922" /><g
             id="g934"><g
               style="opacity:0.5"
               id="g932"
               clip-path="url(#clipPath926)"><g
                 id="g930"
                 transform="translate(575.955,245.64)"><path
                   id="path928"
                   style="fill:none;stroke:#ffffff;stroke-width:1;stroke-linecap:butt;stroke-linejoin:miter;stroke-miterlimit:10;stroke-dasharray:none;stroke-opacity:1"
                   d="m 0,0 11.146,-11.147 18.229,-18.228 c 3.118,-3.118 4.335,-7.661 3.194,-11.92 L 21.817,-81.422 c -1.141,-4.259 -4.467,-7.585 -8.726,-8.726 L -27.036,-100.9 c -4.258,-1.141 -8.802,0.077 -11.92,3.194 l -18.228,18.228 -0.115,-0.115 -244.065,244.065 68.446,68.446 z" /></g></g></g></g><g
           id="g936"><g
             id="g938" /><g
             id="g950"><g
               style="opacity:0.5"
               id="g948"
               clip-path="url(#clipPath942)"><g
                 id="g946"
                 transform="translate(533.0809,183.8373)"><path
                   id="path944"
                   style="fill:none;stroke:#ffffff;stroke-width:1;stroke-linecap:butt;stroke-linejoin:miter;stroke-miterlimit:10;stroke-dasharray:none;stroke-opacity:1"
                   d="m 0,0 21.611,-21.61 35.34,-35.341 c 6.045,-6.044 8.405,-14.853 6.193,-23.11 l -20.846,-77.796 c -2.213,-8.257 -8.661,-14.705 -16.917,-16.918 l -77.797,-20.846 c -8.256,-2.212 -17.066,0.149 -23.11,6.193 l -35.34,35.341 -0.223,-0.224 -473.184,473.185 132.7,132.7 z" /></g></g></g></g><g
           id="g952"><g
             id="g954" /><g
             id="g966"><g
               style="opacity:0.5"
               id="g964"
               clip-path="url(#clipPath958)"><g
                 id="g962"
                 transform="translate(332.8598,114.3651)"><path
                   id="path960"
                   style="fill:none;stroke:#ffffff;stroke-width:1;stroke-linecap:butt;stroke-linejoin:miter;stroke-miterlimit:10;stroke-dasharray:none;stroke-opacity:1"
                   d="m 0,0 -11.611,11.611 -18.988,18.988 c -3.247,3.248 -4.516,7.981 -3.327,12.417 l 11.2,41.798 c 1.189,4.436 4.654,7.901 9.089,9.09 l 41.8,11.2 c 4.436,1.188 9.169,-0.08 12.416,-3.327 l 18.988,-18.988 0.12,0.12 254.234,-254.235 -71.297,-71.298 z" /></g></g></g></g></g></g></g></svg>